<mxfile host="app.diagrams.net" modified="2022-09-14T18:20:46.711Z" agent="5.0 (Windows NT 10.0; Win64; x64) AppleWebKit/537.36 (KHTML, like Gecko) Chrome/105.0.0.0 Safari/537.36" etag="iNF7XGpNa6K1xHVNGq0h" version="20.3.0" type="github">
  <diagram id="SkVhXg2WIMkfHjAsMsHq" name="Page-1">
    <mxGraphModel dx="1335" dy="751" grid="1" gridSize="10" guides="1" tooltips="1" connect="1" arrows="1" fold="1" page="1" pageScale="1" pageWidth="850" pageHeight="1100" math="0" shadow="0">
      <root>
        <mxCell id="0" />
        <mxCell id="1" parent="0" />
        <mxCell id="Bvc_0a4RYQQjo8gp0rui-4" style="edgeStyle=none;rounded=0;orthogonalLoop=1;jettySize=auto;html=1;exitX=0.5;exitY=1;exitDx=0;exitDy=0;entryX=0.5;entryY=0;entryDx=0;entryDy=0;" edge="1" parent="1">
          <mxGeometry relative="1" as="geometry">
            <mxPoint x="380" y="90" as="sourcePoint" />
            <mxPoint x="380" y="140" as="targetPoint" />
          </mxGeometry>
        </mxCell>
        <mxCell id="Bvc_0a4RYQQjo8gp0rui-10" style="edgeStyle=none;rounded=0;orthogonalLoop=1;jettySize=auto;html=1;exitX=0;exitY=0.5;exitDx=0;exitDy=0;" edge="1" parent="1" source="Bvc_0a4RYQQjo8gp0rui-5" target="Bvc_0a4RYQQjo8gp0rui-9">
          <mxGeometry relative="1" as="geometry" />
        </mxCell>
        <mxCell id="Bvc_0a4RYQQjo8gp0rui-13" style="edgeStyle=none;rounded=0;orthogonalLoop=1;jettySize=auto;html=1;exitX=1;exitY=0.5;exitDx=0;exitDy=0;entryX=0.5;entryY=0;entryDx=0;entryDy=0;" edge="1" parent="1" source="Bvc_0a4RYQQjo8gp0rui-5" target="Bvc_0a4RYQQjo8gp0rui-12">
          <mxGeometry relative="1" as="geometry" />
        </mxCell>
        <mxCell id="Bvc_0a4RYQQjo8gp0rui-5" value="n%4==0" style="rhombus;whiteSpace=wrap;html=1;" vertex="1" parent="1">
          <mxGeometry x="320" y="230" width="130" height="120" as="geometry" />
        </mxCell>
        <mxCell id="Bvc_0a4RYQQjo8gp0rui-8" value="" style="edgeStyle=none;rounded=0;orthogonalLoop=1;jettySize=auto;html=1;" edge="1" parent="1" source="Bvc_0a4RYQQjo8gp0rui-7" target="Bvc_0a4RYQQjo8gp0rui-5">
          <mxGeometry relative="1" as="geometry" />
        </mxCell>
        <mxCell id="Bvc_0a4RYQQjo8gp0rui-7" value="take input n" style="shape=parallelogram;perimeter=parallelogramPerimeter;whiteSpace=wrap;html=1;fixedSize=1;" vertex="1" parent="1">
          <mxGeometry x="320" y="140" width="120" height="60" as="geometry" />
        </mxCell>
        <mxCell id="Bvc_0a4RYQQjo8gp0rui-28" style="edgeStyle=none;rounded=0;orthogonalLoop=1;jettySize=auto;html=1;" edge="1" parent="1" source="Bvc_0a4RYQQjo8gp0rui-9" target="Bvc_0a4RYQQjo8gp0rui-26">
          <mxGeometry relative="1" as="geometry" />
        </mxCell>
        <mxCell id="Bvc_0a4RYQQjo8gp0rui-9" value="not a leap year" style="shape=parallelogram;perimeter=parallelogramPerimeter;whiteSpace=wrap;html=1;fixedSize=1;" vertex="1" parent="1">
          <mxGeometry x="80" y="370" width="120" height="70" as="geometry" />
        </mxCell>
        <mxCell id="Bvc_0a4RYQQjo8gp0rui-11" value="no" style="text;html=1;align=center;verticalAlign=middle;resizable=0;points=[];autosize=1;strokeColor=none;fillColor=none;" vertex="1" parent="1">
          <mxGeometry x="230" y="305" width="40" height="30" as="geometry" />
        </mxCell>
        <mxCell id="Bvc_0a4RYQQjo8gp0rui-16" style="edgeStyle=none;rounded=0;orthogonalLoop=1;jettySize=auto;html=1;entryX=0.672;entryY=-0.004;entryDx=0;entryDy=0;entryPerimeter=0;" edge="1" parent="1" source="Bvc_0a4RYQQjo8gp0rui-12" target="Bvc_0a4RYQQjo8gp0rui-15">
          <mxGeometry relative="1" as="geometry" />
        </mxCell>
        <mxCell id="Bvc_0a4RYQQjo8gp0rui-19" style="edgeStyle=none;rounded=0;orthogonalLoop=1;jettySize=auto;html=1;exitX=1;exitY=0.5;exitDx=0;exitDy=0;entryX=0.5;entryY=0;entryDx=0;entryDy=0;" edge="1" parent="1" source="Bvc_0a4RYQQjo8gp0rui-12" target="Bvc_0a4RYQQjo8gp0rui-18">
          <mxGeometry relative="1" as="geometry" />
        </mxCell>
        <mxCell id="Bvc_0a4RYQQjo8gp0rui-12" value="n%100==0" style="rhombus;whiteSpace=wrap;html=1;" vertex="1" parent="1">
          <mxGeometry x="470" y="340" width="130" height="120" as="geometry" />
        </mxCell>
        <mxCell id="Bvc_0a4RYQQjo8gp0rui-14" value="yes" style="text;html=1;align=center;verticalAlign=middle;resizable=0;points=[];autosize=1;strokeColor=none;fillColor=none;" vertex="1" parent="1">
          <mxGeometry x="490" y="295" width="40" height="30" as="geometry" />
        </mxCell>
        <mxCell id="Bvc_0a4RYQQjo8gp0rui-29" style="edgeStyle=none;rounded=0;orthogonalLoop=1;jettySize=auto;html=1;" edge="1" parent="1" source="Bvc_0a4RYQQjo8gp0rui-15" target="Bvc_0a4RYQQjo8gp0rui-26">
          <mxGeometry relative="1" as="geometry" />
        </mxCell>
        <mxCell id="Bvc_0a4RYQQjo8gp0rui-15" value="leap year" style="shape=parallelogram;perimeter=parallelogramPerimeter;whiteSpace=wrap;html=1;fixedSize=1;" vertex="1" parent="1">
          <mxGeometry x="320" y="460" width="120" height="60" as="geometry" />
        </mxCell>
        <mxCell id="Bvc_0a4RYQQjo8gp0rui-17" value="no" style="text;html=1;align=center;verticalAlign=middle;resizable=0;points=[];autosize=1;strokeColor=none;fillColor=none;" vertex="1" parent="1">
          <mxGeometry x="430" y="415" width="40" height="30" as="geometry" />
        </mxCell>
        <mxCell id="Bvc_0a4RYQQjo8gp0rui-23" style="edgeStyle=none;rounded=0;orthogonalLoop=1;jettySize=auto;html=1;exitX=1;exitY=0.5;exitDx=0;exitDy=0;" edge="1" parent="1" source="Bvc_0a4RYQQjo8gp0rui-18" target="Bvc_0a4RYQQjo8gp0rui-22">
          <mxGeometry relative="1" as="geometry" />
        </mxCell>
        <mxCell id="Bvc_0a4RYQQjo8gp0rui-24" style="edgeStyle=none;rounded=0;orthogonalLoop=1;jettySize=auto;html=1;exitX=0;exitY=0.5;exitDx=0;exitDy=0;entryX=0.75;entryY=0;entryDx=0;entryDy=0;" edge="1" parent="1" source="Bvc_0a4RYQQjo8gp0rui-18" target="Bvc_0a4RYQQjo8gp0rui-21">
          <mxGeometry relative="1" as="geometry" />
        </mxCell>
        <mxCell id="Bvc_0a4RYQQjo8gp0rui-18" value="n%400==0" style="rhombus;whiteSpace=wrap;html=1;" vertex="1" parent="1">
          <mxGeometry x="620" y="450" width="130" height="130" as="geometry" />
        </mxCell>
        <mxCell id="Bvc_0a4RYQQjo8gp0rui-20" value="yes" style="text;html=1;align=center;verticalAlign=middle;resizable=0;points=[];autosize=1;strokeColor=none;fillColor=none;" vertex="1" parent="1">
          <mxGeometry x="630" y="395" width="40" height="30" as="geometry" />
        </mxCell>
        <mxCell id="Bvc_0a4RYQQjo8gp0rui-30" style="edgeStyle=none;rounded=0;orthogonalLoop=1;jettySize=auto;html=1;" edge="1" parent="1" source="Bvc_0a4RYQQjo8gp0rui-21" target="Bvc_0a4RYQQjo8gp0rui-26">
          <mxGeometry relative="1" as="geometry" />
        </mxCell>
        <mxCell id="Bvc_0a4RYQQjo8gp0rui-21" value="not a leap year" style="shape=parallelogram;perimeter=parallelogramPerimeter;whiteSpace=wrap;html=1;fixedSize=1;" vertex="1" parent="1">
          <mxGeometry x="460" y="580" width="120" height="60" as="geometry" />
        </mxCell>
        <mxCell id="Bvc_0a4RYQQjo8gp0rui-31" style="edgeStyle=none;rounded=0;orthogonalLoop=1;jettySize=auto;html=1;" edge="1" parent="1" source="Bvc_0a4RYQQjo8gp0rui-22" target="Bvc_0a4RYQQjo8gp0rui-26">
          <mxGeometry relative="1" as="geometry" />
        </mxCell>
        <mxCell id="Bvc_0a4RYQQjo8gp0rui-22" value="leap year" style="shape=parallelogram;perimeter=parallelogramPerimeter;whiteSpace=wrap;html=1;fixedSize=1;" vertex="1" parent="1">
          <mxGeometry x="760" y="570" width="120" height="60" as="geometry" />
        </mxCell>
        <mxCell id="Bvc_0a4RYQQjo8gp0rui-25" value="no&lt;br&gt;" style="text;html=1;align=center;verticalAlign=middle;resizable=0;points=[];autosize=1;strokeColor=none;fillColor=none;" vertex="1" parent="1">
          <mxGeometry x="560" y="520" width="40" height="30" as="geometry" />
        </mxCell>
        <mxCell id="Bvc_0a4RYQQjo8gp0rui-26" value="end" style="ellipse;whiteSpace=wrap;html=1;" vertex="1" parent="1">
          <mxGeometry x="430" y="730" width="120" height="80" as="geometry" />
        </mxCell>
        <mxCell id="Bvc_0a4RYQQjo8gp0rui-27" value="start" style="ellipse;whiteSpace=wrap;html=1;" vertex="1" parent="1">
          <mxGeometry x="320" y="10" width="120" height="80" as="geometry" />
        </mxCell>
      </root>
    </mxGraphModel>
  </diagram>
</mxfile>
